<svg xmlns="http://www.w3.org/2000/svg" xmlns:xlink="http://www.w3.org/1999/xlink" zoomAndPan="magnify" viewBox="250 296 1002 905" preserveAspectRatio="xMidYMid meet" version="1.0"><defs><g/><clipPath id="acebdf8fca"><rect x="0" width="1002" y="0" height="905"/></clipPath></defs><g transform="matrix(1, 0, 0, 1, 250, 296)"><g clip-path="url(#acebdf8fca)"><g fill="#3C2415" fill-opacity="1"><g transform="translate(287.231636, 807.742532)"><g><path d="M -42.09375 46.140625 L -66.296875 63.921875 L -122.484375 13.8125 L -107.765625 -12.4375 L -103.265625 -8.8125 L -103.4375 -8.203125 C -104.625 -4.472656 -105.515625 -0.507812 -106.109375 3.6875 C -106.703125 7.894531 -106.640625 11.898438 -105.921875 15.703125 C -105.203125 19.503906 -103.363281 22.722656 -100.40625 25.359375 L -96.625 28.734375 L -47.25 -26.625 C -45.875 -28.164062 -45.378906 -29.675781 -45.765625 -31.15625 C -46.148438 -32.632812 -47.144531 -34.03125 -48.75 -35.34375 L -49.484375 -36 L -45.4375 -40.53125 L -20.03125 -17.875 L -24.078125 -13.34375 L -24.8125 -13.984375 C -28.132812 -17.191406 -31.078125 -17.359375 -33.640625 -14.484375 L -83.015625 40.875 L -79.21875 44.25 C -76.476562 46.695312 -73.238281 47.976562 -69.5 48.09375 C -65.757812 48.21875 -61.925781 47.632812 -58 46.34375 C -54.070312 45.050781 -50.378906 43.671875 -46.921875 42.203125 L -46.328125 41.96875 Z M -42.09375 46.140625 "/></g></g></g><g fill="#3C2415" fill-opacity="1"><g transform="translate(193.72515, 714.208383)"><g><path d="M -76.90625 37.984375 L -76.4375 38.875 L -81.8125 41.6875 L -97.671875 11.40625 L -92.296875 8.59375 L -91.828125 9.453125 C -90.828125 11.378906 -89.675781 12.71875 -88.375 13.46875 C -87.082031 14.226562 -85.519531 14.128906 -83.6875 13.171875 L -54.640625 -2.03125 L -71.671875 -34.578125 L -100.71875 -19.375 C -102.550781 -18.414062 -103.523438 -17.1875 -103.640625 -15.6875 C -103.765625 -14.195312 -103.320312 -12.492188 -102.3125 -10.578125 L -101.859375 -9.703125 L -107.234375 -6.890625 L -123.078125 -37.1875 L -117.703125 -40 L -117.25 -39.109375 C -116.238281 -37.191406 -115.09375 -35.875 -113.8125 -35.15625 C -112.539062 -34.4375 -110.988281 -34.554688 -109.15625 -35.515625 L -48.3125 -67.34375 C -46.476562 -68.300781 -45.488281 -69.507812 -45.34375 -70.96875 C -45.207031 -72.4375 -45.644531 -74.128906 -46.65625 -76.046875 L -47.109375 -76.9375 L -41.71875 -79.75 L -25.875 -49.453125 L -31.265625 -46.640625 L -31.71875 -47.515625 C -32.726562 -49.429688 -33.878906 -50.765625 -35.171875 -51.515625 C -36.472656 -52.265625 -38.039062 -52.160156 -39.875 -51.203125 L -66.28125 -37.390625 L -49.25 -4.84375 L -22.84375 -18.65625 C -21.007812 -19.613281 -20.03125 -20.84375 -19.90625 -22.34375 C -19.789062 -23.84375 -20.234375 -25.554688 -21.234375 -27.484375 L -21.703125 -28.34375 L -16.3125 -31.15625 L -0.453125 -0.875 L -5.84375 1.9375 L -6.3125 1.046875 C -7.3125 -0.867188 -8.457031 -2.203125 -9.75 -2.953125 C -11.050781 -3.703125 -12.617188 -3.597656 -14.453125 -2.640625 L -75.296875 29.1875 C -77.128906 30.144531 -78.101562 31.367188 -78.21875 32.859375 C -78.34375 34.359375 -77.90625 36.066406 -76.90625 37.984375 Z M -76.90625 37.984375 "/></g></g></g><g fill="#3C2415" fill-opacity="1"><g transform="translate(138.666459, 590.113938)"><g><path d="M -6.140625 -0.046875 L -6.28125 -1.03125 C -6.46875 -3.1875 -7.0625 -4.835938 -8.0625 -5.984375 C -9.070312 -7.128906 -10.597656 -7.566406 -12.640625 -7.296875 L -80.71875 1.78125 C -82.769531 2.0625 -84.132812 2.882812 -84.8125 4.25 C -85.488281 5.625 -85.632812 7.378906 -85.25 9.515625 L -85.109375 10.5 L -91.125 11.296875 L -100.15625 -56.34375 L -71.890625 -66.5 L -70.8125 -60.6875 L -71.484375 -60.3125 C -72.785156 -59.46875 -74.148438 -58.6875 -75.578125 -57.96875 C -77.015625 -57.25 -78.378906 -56.425781 -79.671875 -55.5 C -84.054688 -52.738281 -87.1875 -49.492188 -89.0625 -45.765625 C -90.9375 -42.046875 -91.515625 -37.476562 -90.796875 -32.0625 L -88.5625 -15.40625 L -50.890625 -20.4375 C -51.222656 -22.863281 -51.566406 -25.238281 -51.921875 -27.5625 C -52.273438 -29.894531 -52.609375 -32.226562 -52.921875 -34.5625 C -53.679688 -39.488281 -54.992188 -43.253906 -56.859375 -45.859375 C -58.722656 -48.460938 -62.09375 -49.488281 -66.96875 -48.9375 L -67.8125 -48.828125 L -68.609375 -54.84375 L -39.0625 -58.78125 L -38.234375 -52.625 L -39.0625 -52.515625 C -42.164062 -52.191406 -44.273438 -51.21875 -45.390625 -49.59375 C -46.503906 -47.976562 -47.066406 -45.957031 -47.078125 -43.53125 C -47.085938 -41.113281 -46.890625 -38.410156 -46.484375 -35.421875 C -46.265625 -33.066406 -46 -30.722656 -45.6875 -28.390625 C -45.382812 -26.054688 -45.066406 -23.675781 -44.734375 -21.25 L -9.59375 -25.953125 L -12.703125 -49.203125 C -13.335938 -53.960938 -15.101562 -57.617188 -18 -60.171875 C -20.90625 -62.734375 -24.492188 -64.679688 -28.765625 -66.015625 C -30.367188 -66.546875 -32 -66.984375 -33.65625 -67.328125 C -35.3125 -67.679688 -36.929688 -68.09375 -38.515625 -68.5625 L -39.109375 -68.765625 L -39.59375 -74.53125 L -9.640625 -72.265625 L -0.109375 -0.84375 Z M -6.140625 -0.046875 "/></g></g></g><g fill="#3C2415" fill-opacity="1"><g transform="translate(131.774069, 464.023361)"><g/></g></g><g fill="#3C2415" fill-opacity="1"><g transform="translate(144.954621, 389.604274)"><g><path d="M 20.4375 -41.796875 C 16.425781 -32.742188 11.269531 -26.007812 4.96875 -21.59375 C -1.320312 -17.175781 -8.40625 -14.914062 -16.28125 -14.8125 C -24.15625 -14.71875 -32.398438 -16.582031 -41.015625 -20.40625 C -49.535156 -24.195312 -56.332031 -29.203125 -61.40625 -35.421875 C -66.476562 -41.640625 -69.476562 -48.691406 -70.40625 -56.578125 C -71.332031 -64.460938 -69.863281 -72.75 -66 -81.4375 C -63.851562 -86.269531 -61.097656 -90.664062 -57.734375 -94.625 C -54.367188 -98.59375 -50.34375 -101.800781 -45.65625 -104.25 C -45.289062 -104.382812 -44.492188 -104.671875 -43.265625 -105.109375 C -42.035156 -105.554688 -41.085938 -105.832031 -40.421875 -105.9375 L -24.5625 -100.578125 L -26.6875 -95.8125 C -31.226562 -95.5625 -35.707031 -94.921875 -40.125 -93.890625 C -44.550781 -92.867188 -48.5625 -91.148438 -52.15625 -88.734375 C -55.757812 -86.316406 -58.59375 -82.785156 -60.65625 -78.140625 C -62.53125 -73.921875 -62.882812 -69.75 -61.71875 -65.625 C -60.5625 -61.507812 -58.457031 -57.664062 -55.40625 -54.09375 C -52.363281 -50.519531 -48.925781 -47.363281 -45.09375 -44.625 C -41.269531 -41.894531 -37.632812 -39.765625 -34.1875 -38.234375 C -30.65625 -36.660156 -26.523438 -35.335938 -21.796875 -34.265625 C -17.066406 -33.191406 -12.289062 -32.742188 -7.46875 -32.921875 C -2.644531 -33.097656 1.734375 -34.140625 5.671875 -36.046875 C 9.609375 -37.960938 12.550781 -41.113281 14.5 -45.5 C 16.800781 -50.664062 17.804688 -55.347656 17.515625 -59.546875 C 17.222656 -63.753906 15.976562 -67.734375 13.78125 -71.484375 C 11.582031 -75.242188 8.78125 -78.863281 5.375 -82.34375 L 7.609375 -87.375 L 21.375 -79.40625 C 21.832031 -78.789062 22.269531 -77.972656 22.6875 -76.953125 C 23.101562 -75.929688 23.4375 -75.113281 23.6875 -74.5 C 25.695312 -69.070312 26.234375 -63.550781 25.296875 -57.9375 C 24.359375 -52.332031 22.738281 -46.953125 20.4375 -41.796875 Z M 20.4375 -41.796875 "/></g></g></g><g fill="#3C2415" fill-opacity="1"><g transform="translate(202.885154, 275.70339)"><g><path d="M 25.25 -25.5 L 0.203125 -0.203125 L -4.109375 -4.484375 L -3.421875 -5.1875 C -1.109375 -7.65625 0.1875 -10.375 0.46875 -13.34375 C 0.757812 -16.3125 0.300781 -19.320312 -0.90625 -22.375 L -31.65625 -98.546875 L -27.078125 -103.15625 L 53.078125 -71.296875 C 55.492188 -70.378906 57.53125 -70.09375 59.1875 -70.4375 C 60.851562 -70.78125 62.550781 -71.820312 64.28125 -73.5625 L 64.96875 -74.25 L 69.28125 -69.96875 L 42.9375 -43.375 L 38.625 -47.65625 L 39.3125 -48.34375 C 40.175781 -49.21875 41.101562 -50.351562 42.09375 -51.75 C 43.082031 -53.15625 42.972656 -54.453125 41.765625 -55.640625 C 41.171875 -56.234375 40.539062 -56.664062 39.875 -56.9375 L 16.75 -66.109375 L -3.125 -46.03125 L 4.765625 -27.09375 C 4.960938 -26.625 5.28125 -26.109375 5.71875 -25.546875 C 6.15625 -24.992188 6.609375 -24.488281 7.078125 -24.03125 C 8.753906 -22.363281 10.503906 -21.984375 12.328125 -22.890625 C 14.148438 -23.796875 15.757812 -24.820312 17.15625 -25.96875 C 17.6875 -26.5 18.21875 -27.03125 18.75 -27.5625 C 19.28125 -28.101562 19.773438 -28.609375 20.234375 -29.078125 L 20.9375 -29.78125 Z M -17.171875 -79.625 L -5.75 -52.015625 L 10.65625 -68.59375 Z M -17.171875 -79.625 "/></g></g></g><g fill="#3C2415" fill-opacity="1"><g transform="translate(308.375526, 181.955677)"><g><path d="M -37.484375 -83.828125 L -6.359375 -97.984375 L -3.84375 -92.453125 L -4.75 -92.03125 C -6.71875 -91.132812 -8.113281 -90.054688 -8.9375 -88.796875 C -9.769531 -87.546875 -9.757812 -85.976562 -8.90625 -84.09375 L 3.84375 -56.0625 L 17.3125 -87.171875 C 18.101562 -89.078125 18.660156 -90.984375 18.984375 -92.890625 C 19.304688 -94.804688 18.984375 -96.421875 18.015625 -97.734375 C 17.054688 -99.054688 15.0625 -99.757812 12.03125 -99.84375 L 11.515625 -99.90625 L 9.1875 -105.046875 L 35.1875 -116.859375 L 37.703125 -111.328125 C 35.828125 -109.972656 34.101562 -107.898438 32.53125 -105.109375 C 30.957031 -102.328125 28.816406 -98.195312 26.109375 -92.71875 C 24.566406 -89.539062 22.96875 -86.128906 21.3125 -82.484375 C 19.664062 -78.835938 18.195312 -75.53125 16.90625 -72.5625 C 15.613281 -69.601562 14.691406 -67.476562 14.140625 -66.1875 L 61.46875 -41.296875 C 63.488281 -40.253906 65.585938 -39.609375 67.765625 -39.359375 C 69.953125 -39.109375 72.078125 -39.445312 74.140625 -40.375 L 75.03125 -40.796875 L 77.546875 -35.265625 L 42.578125 -19.359375 L 40.0625 -24.890625 L 40.953125 -25.296875 C 42.066406 -25.804688 42.929688 -26.40625 43.546875 -27.09375 C 44.128906 -27.875 44.265625 -28.609375 43.953125 -29.296875 C 43.835938 -29.554688 43.570312 -29.898438 43.15625 -30.328125 C 43.03125 -30.378906 42.925781 -30.4375 42.84375 -30.5 C 42.769531 -30.570312 42.671875 -30.628906 42.546875 -30.671875 C 42.378906 -30.796875 42.109375 -30.929688 41.734375 -31.078125 L 6.828125 -49.5 L 19.515625 -21.59375 C 20.367188 -19.707031 21.539062 -18.660156 23.03125 -18.453125 C 24.519531 -18.253906 26.25 -18.601562 28.21875 -19.5 L 29.125 -19.921875 L 31.640625 -14.390625 L 0.515625 -0.234375 L -2 -5.765625 L -1.109375 -6.171875 C 0.855469 -7.066406 2.253906 -8.140625 3.078125 -9.390625 C 3.910156 -10.648438 3.898438 -12.222656 3.046875 -14.109375 L -25.375 -76.609375 C -26.226562 -78.492188 -27.398438 -79.535156 -28.890625 -79.734375 C -30.378906 -79.941406 -32.109375 -79.597656 -34.078125 -78.703125 L -34.96875 -78.296875 Z M -37.484375 -83.828125 "/></g></g></g><g fill="#3C2415" fill-opacity="1"><g transform="translate(429.491128, 135.741473)"><g><path d="M 0.328125 -6.140625 L 1.328125 -6.21875 C 3.492188 -6.3125 5.171875 -6.832031 6.359375 -7.78125 C 7.554688 -8.738281 8.066406 -10.242188 7.890625 -12.296875 L 2.046875 -80.71875 C 1.867188 -82.789062 1.113281 -84.191406 -0.21875 -84.921875 C -1.5625 -85.660156 -3.304688 -85.882812 -5.453125 -85.59375 L -6.453125 -85.515625 L -6.96875 -91.578125 L 61.03125 -97.375 L 69.84375 -68.640625 L 63.96875 -67.859375 L 63.640625 -68.53125 C 62.847656 -69.882812 62.128906 -71.289062 61.484375 -72.75 C 60.847656 -74.207031 60.09375 -75.601562 59.21875 -76.9375 C 56.664062 -81.445312 53.570312 -84.726562 49.9375 -86.78125 C 46.3125 -88.832031 41.78125 -89.628906 36.34375 -89.171875 L 19.59375 -87.734375 L 22.828125 -49.875 C 25.265625 -50.082031 27.648438 -50.304688 29.984375 -50.546875 C 32.328125 -50.796875 34.671875 -51.023438 37.015625 -51.234375 C 41.984375 -51.742188 45.8125 -52.875 48.5 -54.625 C 51.195312 -56.375 52.382812 -59.6875 52.0625 -64.5625 L 51.984375 -65.40625 L 58.03125 -65.921875 L 60.578125 -36.21875 L 54.390625 -35.703125 L 54.3125 -36.546875 C 54.132812 -39.648438 53.265625 -41.796875 51.703125 -42.984375 C 50.140625 -44.179688 48.144531 -44.835938 45.71875 -44.953125 C 43.300781 -45.066406 40.585938 -45 37.578125 -44.75 C 35.222656 -44.632812 32.875 -44.476562 30.53125 -44.28125 C 28.1875 -44.082031 25.796875 -43.878906 23.359375 -43.671875 L 26.375 -8.359375 L 49.734375 -10.359375 C 54.523438 -10.765625 58.265625 -12.359375 60.953125 -15.140625 C 63.648438 -17.921875 65.765625 -21.40625 67.296875 -25.59375 C 67.921875 -27.164062 68.441406 -28.769531 68.859375 -30.40625 C 69.285156 -32.050781 69.765625 -33.65625 70.296875 -35.21875 L 70.53125 -35.796875 L 76.34375 -36.015625 L 72.640625 -6.203125 L 0.84375 -0.078125 Z M 0.328125 -6.140625 "/></g></g></g><g fill="#3C2415" fill-opacity="1"><g transform="translate(555.76873, 134.837251)"><g/></g></g><g fill="#3C2415" fill-opacity="1"><g transform="translate(629.173639, 150.534263)"><g><path d="M 31.796875 16.640625 L 0.25 0.125 L 3.0625 -5.265625 L 3.9375 -4.796875 C 7 -3.304688 9.984375 -2.859375 12.890625 -3.453125 C 15.804688 -4.054688 18.554688 -5.382812 21.140625 -7.4375 L 84.890625 -59.21875 L 90.65625 -56.203125 L 83.734375 29.8125 C 83.566406 32.375 83.890625 34.398438 84.703125 35.890625 C 85.515625 37.378906 87.003906 38.691406 89.171875 39.828125 L 90.046875 40.28125 L 87.234375 45.671875 L 54.0625 28.3125 L 56.875 22.921875 L 57.75 23.375 C 58.84375 23.945312 60.203125 24.5 61.828125 25.03125 C 63.460938 25.570312 64.675781 25.085938 65.46875 23.578125 C 65.863281 22.828125 66.085938 22.101562 66.140625 21.40625 L 68.109375 -3.40625 L 43.078125 -16.5 L 27.3125 -3.40625 C 26.914062 -3.070312 26.515625 -2.613281 26.109375 -2.03125 C 25.703125 -1.457031 25.34375 -0.878906 25.03125 -0.296875 C 23.9375 1.792969 24.09375 3.578125 25.5 5.046875 C 26.90625 6.523438 28.351562 7.765625 29.84375 8.765625 C 30.507812 9.109375 31.175781 9.453125 31.84375 9.796875 C 32.507812 10.148438 33.132812 10.484375 33.71875 10.796875 L 34.609375 11.25 Z M 71.0625 -39.8125 L 48.046875 -20.78125 L 68.6875 -9.96875 Z M 71.0625 -39.8125 "/></g></g></g><g fill="#3C2415" fill-opacity="1"><g transform="translate(749.783739, 223.589848)"><g><path d="M 47.390625 -40.6875 L 73.546875 -55.40625 L 123.25 1.15625 L 105.484375 25.421875 L 101.4375 21.265625 L 101.6875 20.6875 C 103.3125 17.113281 104.671875 13.28125 105.765625 9.1875 C 106.867188 5.09375 107.296875 1.117188 107.046875 -2.734375 C 106.796875 -6.597656 105.363281 -10.019531 102.75 -13 L 99.390625 -16.8125 L 43.671875 32.15625 C 42.117188 33.519531 41.441406 34.957031 41.640625 36.46875 C 41.835938 37.988281 42.660156 39.492188 44.109375 40.984375 L 44.75 41.71875 L 40.1875 45.734375 L 17.71875 20.171875 L 22.28125 16.15625 L 22.9375 16.890625 C 25.84375 20.484375 28.742188 21.007812 31.640625 18.46875 L 87.359375 -30.5 L 84 -34.3125 C 81.570312 -37.082031 78.507812 -38.75 74.8125 -39.3125 C 71.113281 -39.882812 67.234375 -39.769531 63.171875 -38.96875 C 59.117188 -38.164062 55.289062 -37.242188 51.6875 -36.203125 L 51.078125 -36.046875 Z M 47.390625 -40.6875 "/></g></g></g><g fill="#3C2415" fill-opacity="1"><g transform="translate(830.884816, 328.620702)"><g><path d="M 5.96875 -1.453125 L 6.328125 -0.515625 C 7.046875 1.535156 8.03125 2.992188 9.28125 3.859375 C 10.53125 4.734375 12.113281 4.789062 14.03125 4.03125 L 77.921875 -21.140625 C 79.847656 -21.898438 80.972656 -23.023438 81.296875 -24.515625 C 81.628906 -26.015625 81.347656 -27.753906 80.453125 -29.734375 L 80.09375 -30.671875 L 85.734375 -32.890625 L 110.765625 30.609375 L 85.75 47.28125 L 83.328125 41.875 L 83.890625 41.34375 C 84.941406 40.21875 86.078125 39.132812 87.296875 38.09375 C 88.515625 37.0625 89.640625 35.9375 90.671875 34.71875 C 94.253906 30.976562 96.507812 27.070312 97.4375 23 C 98.375 18.9375 97.84375 14.367188 95.84375 9.296875 L 89.671875 -6.34375 L 54.3125 7.59375 C 55.207031 9.863281 56.109375 12.085938 57.015625 14.265625 C 57.921875 16.441406 58.804688 18.625 59.671875 20.8125 C 61.597656 25.425781 63.78125 28.769531 66.21875 30.84375 C 68.664062 32.914062 72.179688 33.097656 76.765625 31.390625 L 77.546875 31.078125 L 79.78125 36.734375 L 52.046875 47.671875 L 49.765625 41.890625 L 50.546875 41.578125 C 53.472656 40.515625 55.285156 39.066406 55.984375 37.234375 C 56.679688 35.398438 56.738281 33.304688 56.15625 30.953125 C 55.570312 28.597656 54.726562 26.015625 53.625 23.203125 C 52.851562 20.972656 52.035156 18.757812 51.171875 16.5625 C 50.304688 14.375 49.425781 12.144531 48.53125 9.875 L 15.546875 22.875 L 24.15625 44.6875 C 25.914062 49.15625 28.515625 52.28125 31.953125 54.0625 C 35.390625 55.851562 39.335938 56.882812 43.796875 57.15625 C 45.472656 57.300781 47.15625 57.34375 48.84375 57.28125 C 50.539062 57.21875 52.210938 57.21875 53.859375 57.28125 L 54.5 57.34375 L 56.359375 62.828125 L 26.734375 67.828125 L 0.3125 0.78125 Z M 5.96875 -1.453125 "/></g></g></g><g fill="#3C2415" fill-opacity="1"><g transform="translate(869.177979, 446.776714)"><g><path d="M 91.765625 -3.6875 L 93.34375 30.46875 L 87.265625 30.75 L 87.21875 29.765625 C 87.113281 27.597656 86.632812 25.894531 85.78125 24.65625 C 84.925781 23.425781 83.460938 22.863281 81.390625 22.96875 L 7.328125 26.671875 L 7.796875 36.6875 C 7.992188 41.019531 8.773438 45.226562 10.140625 49.3125 C 11.503906 53.40625 13.484375 57.0625 16.078125 60.28125 C 18.679688 63.507812 21.953125 65.925781 25.890625 67.53125 L 26.609375 67.78125 L 26.609375 73.71875 L 3.171875 68.4375 L 0.03125 0.5625 L 6.109375 0.28125 L 6.15625 1.265625 C 6.25 3.429688 6.722656 5.128906 7.578125 6.359375 C 8.441406 7.597656 9.90625 8.171875 11.96875 8.078125 L 80.5625 4.90625 C 82.632812 4.800781 84.035156 4.09375 84.765625 2.78125 C 85.503906 1.476562 85.828125 -0.253906 85.734375 -2.421875 L 85.6875 -3.40625 Z M 91.765625 -3.6875 "/></g></g></g><g fill="#3C2415" fill-opacity="1"><g transform="translate(865.772881, 568.489334)"><g><path d="M 88.5625 24.515625 L 80.609375 57.765625 L 74.6875 56.359375 L 74.90625 55.40625 C 75.414062 53.300781 75.429688 51.535156 74.953125 50.109375 C 74.472656 48.679688 73.222656 47.726562 71.203125 47.25 L 4.421875 31.265625 C 2.410156 30.785156 0.867188 31.070312 -0.203125 32.125 C -1.273438 33.175781 -2.066406 34.753906 -2.578125 36.859375 L -2.796875 37.8125 L -8.703125 36.40625 L -0.75 3.15625 L 5.15625 4.5625 L 4.921875 5.53125 C 4.421875 7.632812 4.410156 9.394531 4.890625 10.8125 C 5.378906 12.238281 6.628906 13.191406 8.640625 13.671875 L 75.421875 29.65625 C 77.441406 30.132812 78.984375 29.847656 80.046875 28.796875 C 81.117188 27.753906 81.90625 26.179688 82.40625 24.078125 L 82.640625 23.109375 Z M 88.5625 24.515625 "/></g></g></g><g fill="#3C2415" fill-opacity="1"><g transform="translate(841.99241, 651.463861)"><g><path d="M 4.84375 3.765625 L 4.34375 4.625 C 3.195312 6.457031 2.671875 8.132812 2.765625 9.65625 C 2.867188 11.175781 3.816406 12.453125 5.609375 13.484375 L 65.171875 47.65625 C 66.960938 48.6875 68.546875 48.863281 69.921875 48.1875 C 71.296875 47.507812 72.472656 46.203125 73.453125 44.265625 L 73.953125 43.40625 L 79.234375 46.4375 L 45.265625 105.640625 L 16.625 96.515625 L 19.3125 91.234375 L 20.078125 91.34375 C 21.628906 91.46875 23.1875 91.679688 24.75 91.984375 C 26.320312 92.285156 27.90625 92.457031 29.5 92.5 C 34.65625 92.96875 39.109375 92.296875 42.859375 90.484375 C 46.617188 88.671875 49.859375 85.394531 52.578125 80.65625 L 60.953125 66.078125 L 28 47.171875 C 26.78125 49.296875 25.601562 51.390625 24.46875 53.453125 C 23.332031 55.515625 22.175781 57.566406 21 59.609375 C 18.601562 63.984375 17.359375 67.769531 17.265625 70.96875 C 17.171875 74.175781 19.21875 77.039062 23.40625 79.5625 L 24.140625 79.984375 L 21.125 85.265625 L -4.734375 70.421875 L -1.640625 65.015625 L -0.90625 65.4375 C 1.746094 67.070312 4.007812 67.582031 5.875 66.96875 C 7.738281 66.363281 9.410156 65.097656 10.890625 63.171875 C 12.378906 61.253906 13.875 58.988281 15.375 56.375 C 16.625 54.382812 17.832031 52.367188 19 50.328125 C 20.175781 48.285156 21.375 46.203125 22.59375 44.078125 L -8.15625 26.4375 L -19.828125 46.78125 C -22.222656 50.945312 -23.039062 54.925781 -22.28125 58.71875 C -21.53125 62.507812 -19.867188 66.234375 -17.296875 69.890625 C -16.359375 71.296875 -15.335938 72.640625 -14.234375 73.921875 C -13.128906 75.203125 -12.085938 76.507812 -11.109375 77.84375 L -10.75 78.375 L -13.875 83.25 L -36.28125 63.234375 L -0.421875 0.734375 Z M 4.84375 3.765625 "/></g></g></g><g fill="#3C2415" fill-opacity="1"><g transform="translate(773.858918, 755.154896)"><g><path d="M -25.890625 22.546875 L -1.171875 1.015625 L 2.8125 5.59375 L 2.0625 6.25 C 0.375 7.613281 -0.664062 9.03125 -1.0625 10.5 C -1.46875 11.976562 -0.992188 13.492188 0.359375 15.046875 L 45.453125 66.828125 C 46.804688 68.398438 48.238281 69.085938 49.75 68.890625 C 51.269531 68.691406 52.816406 67.84375 54.390625 66.34375 L 55.140625 65.6875 L 59.125 70.265625 L 58.375 70.921875 C 54.1875 74.566406 50.03125 78.21875 45.90625 81.875 C 41.78125 85.53125 37.617188 89.179688 33.421875 92.828125 C 31.148438 94.804688 28.691406 96.859375 26.046875 98.984375 C 23.398438 101.109375 20.664062 102.835938 17.84375 104.171875 C 12.507812 106.804688 7.3125 107.546875 2.25 106.390625 C -2.808594 105.242188 -7.164062 102.578125 -10.8125 98.390625 C -15.507812 92.992188 -17.488281 87.382812 -16.75 81.5625 C -16.019531 75.738281 -13.546875 70.367188 -9.328125 65.453125 C -13.722656 67.148438 -17.929688 67.40625 -21.953125 66.21875 C -25.972656 65.039062 -29.820312 63.492188 -33.5 61.578125 C -34.59375 61.035156 -35.679688 60.457031 -36.765625 59.84375 C -37.859375 59.238281 -38.894531 58.664062 -39.875 58.125 C -40.894531 57.65625 -41.890625 57.1875 -42.859375 56.71875 C -43.835938 56.25 -44.816406 55.816406 -45.796875 55.421875 C -47.691406 54.816406 -49.40625 54.53125 -50.9375 54.5625 C -52.476562 54.59375 -53.878906 55.09375 -55.140625 56.0625 L -55.984375 56.625 L -59.890625 52.140625 L -47.3125 41.1875 C -45.25 39.394531 -43 38.5 -40.5625 38.5 C -38.125 38.507812 -35.644531 39.097656 -33.125 40.265625 C -30.601562 41.441406 -28.085938 42.75 -25.578125 44.1875 C -23.660156 45.394531 -21.738281 46.597656 -19.8125 47.796875 C -17.894531 49.003906 -15.941406 50.109375 -13.953125 51.109375 C -9.941406 53.117188 -6.390625 54.175781 -3.296875 54.28125 C -0.203125 54.394531 3.117188 52.910156 6.671875 49.828125 L -13.265625 26.921875 C -14.617188 25.367188 -15.878906 24.535156 -17.046875 24.421875 C -18.210938 24.304688 -19.582031 24.988281 -21.15625 26.46875 L -21.90625 27.125 Z M 35.625 83.078125 L 10.671875 54.40625 C 8.816406 56.007812 6.707031 57.929688 4.34375 60.171875 C 1.988281 62.421875 0.308594 64.546875 -0.6875 66.546875 C -2.394531 69.890625 -2.71875 73.316406 -1.65625 76.828125 C -0.601562 80.347656 1.066406 83.421875 3.359375 86.046875 C 5.648438 88.679688 8.476562 90.742188 11.84375 92.234375 C 15.207031 93.734375 18.609375 93.867188 22.046875 92.640625 C 24.160156 91.921875 26.488281 90.546875 29.03125 88.515625 C 31.570312 86.492188 33.769531 84.679688 35.625 83.078125 Z M 35.625 83.078125 "/></g></g></g></g></g></svg>